# xmcd CD database file
#
# Track frame offsets:
#	150
#	13367
#	42947
#	62751
#	92512
#	117761
#	142148
#	164327
#	189027
#	221286
#	249193
#	271019
#
# Disc length: 3886 seconds
#
# Revision: 0
# Processed by: cddbd v1.5.1PL0 Copyright (c) Steve Scherf et al.
# Submitted via: CDex 1.51
#
DISCID=9b0f2c0c
DTITLE=Bamboleo - Ya No Hace Falta
DYEAR=1999
DGENRE=Salsa
TTITLE0=Opening
TTITLE1=Ya No Hace Falta
TTITLE2=Se le Fue la Mano
TTITLE3=Protagonista
TTITLE4=Recapacita
TTITLE5=Tremenda
TTITLE6=Marrisero
TTITLE7=Candil de Nieve
TTITLE8=Pillo
TTITLE9=Lo Mio
TTITLE10=Lo Que Quiero Es Bamboleo
TTITLE11=Ya No Hace Falta [Radio Version]
EXTD=YEAR: 1999
EXTT0=
EXTT1=
EXTT2=
EXTT3=
EXTT4=
EXTT5=
EXTT6=
EXTT7=
EXTT8=
EXTT9=
EXTT10=
EXTT11=
PLAYORDER=
